<?xml version="1.0" encoding="UTF-8"?>
<svg xmlns="http://www.w3.org/2000/svg" xmlns:xlink="http://www.w3.org/1999/xlink" width="446.12pt" height="178.34pt" viewBox="0 0 446.12 178.34" version="1.1">
<defs>
<clipPath id="clip1">
  <path d="M 0 0 L 446.121094 0 L 446.121094 178.339844 L 0 178.339844 Z M 0 0 "/>
</clipPath>
</defs>
<g id="surface1">
<g clip-path="url(#clip1)" clip-rule="nonzero">
<path style=" stroke:none;fill-rule:nonzero;fill:rgb(13.699341%,12.199402%,12.5%);fill-opacity:1;" d="M 137.746094 71.097656 L 49.746094 71.097656 C 42.25 71.082031 36.167969 64.800781 36.167969 57.050781 L 36.167969 51.484375 C 36.167969 43.753906 42.25 37.453125 49.746094 37.4375 L 221.164063 37.4375 L 221.164063 54.269531 L 258.597656 54.269531 L 258.597656 18.707031 C 258.597656 13.789063 256.695313 8.96875 253.328125 5.476563 C 249.945313 1.984375 245.289063 -0.00390625 240.554688 -0.00390625 L 49.746094 -0.00390625 C 22.335938 0.015625 0 23.105469 0 51.507813 L 0 57.050781 C 0 85.425781 22.335938 108.53125 49.746094 108.53125 L 137.765625 108.53125 C 145.230469 108.550781 151.304688 114.84375 151.324219 122.609375 L 151.324219 126.84375 C 151.304688 134.582031 145.230469 140.886719 137.746094 140.894531 L 0 140.894531 L 0 178.339844 L 137.746094 178.339844 C 165.160156 178.339844 187.496094 155.21875 187.496094 126.84375 L 187.496094 122.609375 C 187.496094 94.207031 165.160156 71.109375 137.746094 71.097656 M 396.367188 -0.00390625 L 292.265625 -0.00390625 L 292.265625 37.4375 C 292.265625 37.4375 395.171875 37.4375 396.542969 37.605469 L 396.367188 37.4375 C 403.851563 37.453125 409.945313 43.753906 409.96875 51.507813 L 409.96875 57.050781 C 409.945313 64.800781 403.851563 71.082031 396.367188 71.097656 L 239.265625 71.097656 C 234.476563 71.097656 229.820313 73.078125 226.472656 76.574219 C 223.105469 80.066406 221.164063 84.886719 221.164063 89.832031 L 221.164063 160.257813 C 221.164063 165.015625 223.144531 169.671875 226.644531 173.074219 C 230.128906 176.402344 234.957031 178.339844 239.859375 178.339844 L 275.433594 178.339844 L 275.433594 140.894531 L 258.597656 140.894531 L 258.597656 108.53125 L 396.367188 108.53125 C 423.796875 108.53125 446.121094 85.425781 446.121094 57.050781 L 446.121094 51.507813 C 446.121094 23.105469 423.796875 0.015625 396.367188 -0.00390625 "/>
</g>
</g>
</svg>
